<svg id="Capa_1" data-name="Capa 1" xmlns="http://www.w3.org/2000/svg" viewBox="0 0 730 730"><circle cx="365" cy="365" r="365" fill="#404040"/><path id="Logo" d="M979.32,241.48c11.9-1.45,26.27,29.23,30.91,41.66,1.23,3.31,1.66,5.29,5.17,14.69,4.33,11.61,6.59,15.9,9.61,27,3.21,11.75,3.86,15.86,4,17.05a1.81,1.81,0,0,0,.32.86c1.12,1.59,5.57,7.29,15.84,13,12.1,6.72,18.82,8.06,24.19,16.13s6.72,20.15,8.06,29.56c1.32,9.19,34.69,32.49,36.23,33.56l.11.08c.73.62,10.07,8.3,26.83,14.74,17.47,6.72,26.88,0,26.88,16.13v2.89l0,.36c-.31,1.66-2.74,14.22-4,14.22s1.35,10.75-10.75,12.1c-10.7,1.18-22.45,9.74-25,11.69a1.93,1.93,0,0,1-1.18.4h-65.2a1.92,1.92,0,0,0-1.18.39c-3,2.29-18,14-21.65,22.46-4,9.4-2.69,10.75,0,16.12,2.45,4.9.44,17.58.06,19.82a2,2,0,0,1-.23.64c-.77,1.32-3.86,6.76-3.86,9.11,0,2.69,0,14.78,2.69,18.81s2.69,4,1.34,6.72c-1.22,2.45-1.33,7.14-1.34,8v.23c.23,1.65,2.91,20.52,8.05,30.8,5.38,10.75,10.75,18.81,4,64.5-6.58,44.75-13.16,88.2-13.43,90v.12c-.15,2-3.9,53.82,2.69,60.41s-34.94-10.75-55.1-25.53-57.79-57.79-71.22-73.92c-20.25-24.29-19.45-24-26.08-30.44-26.81-26.16-57.37-38.66-80.41-45.15a2,2,0,0,1-.68-3.42l37.27-29.6a2,2,0,0,0-1.45-3.49L815.3,647a2,2,0,0,1-2.17-2.23,32.65,32.65,0,0,0-1.8-16.28c-4.65-12.09-16.34-16.07-19.61-17.26a1.81,1.81,0,0,1-.87-.67c-3.91-5.42-41.2-57.47-38.65-60,2.69-2.69,36.29-18.82,34.94-22.85S806,556,828.8,577.45c22.45,21.13,117.53,94.14,120.86,96.69l.18.16c87.49,87.49,52.46,55.75,74.65,79.79a2,2,0,0,0,3.42-1.23c3.15-64.85,14.26-97.46,1.13-97.46a6.1,6.1,0,0,0-2.07.47c-3.27,1.4-6.61,68-7.33,68.07s-5.38-44.67-9.35-82.74a1.9,1.9,0,0,0-.44-1c-2.69-3.17-19.29-22-42.63-31.8-25.53-10.75-29.56-14.78-55.09-29.56s-43-17.47-65.86-26.88-37.63-16.13-45.69-24.19a73.15,73.15,0,0,1-7.31-8.07,2,2,0,0,1,.05-2.35c3.26-4.11,15.32-19.51,15.32-21.83v-2.07a2,2,0,0,0-2-2h-3.1a2,2,0,0,1-1.59-3.1,16,16,0,0,0,2.62-6.3,15.35,15.35,0,0,0,.21-3.55,2,2,0,0,0-2-1.83h-2.28c7.25-4.9,21.93-16.46,28.22-36.28a62,62,0,0,0,2.41-10.89A2,2,0,0,0,829,427.3h-.1a2,2,0,0,1-1.69-3.3,17,17,0,0,0,4.3-7.82,10.8,10.8,0,0,0,.19-1.21,2,2,0,0,0-1.13-1.93c-2-.92-4-1.12-8.25-2.26-1.67-.45-2.88-.81-2.9-1.32,0-1.18,6.14-2.26,8.06-2.69,12-2.7,20.53-16.42,22.85-20.16,9.34-15.13-.77-25.83,0-63.16.61-30.27,6-40.69,10.75-47,5.73-7.68,18-19.36,25.53-16.13a8.12,8.12,0,0,1,3.59,3.26,2,2,0,0,1,.23,1.56,22,22,0,0,0,.21,12.65c1.44,4.18,3.46,5.15,6.72,9.41,7.8,10.19,4.31,15.14,12.1,25.53,4.12,5.51,5.47,4.62,8.06,9.41,4.25,7.86,1.66,12.2,5.38,16.13,4.46,4.72,13.9,4.52,20.15,1.34,7.6-3.85,11.38-12.55,12.1-18.81.53-4.62-.69-7.25,1.34-12.1,1.45-3.45,3-4.45,4-8.06a19.14,19.14,0,0,0,0-9.41C958.33,280.66,966.68,243,979.32,241.48Z" transform="translate(-594.77 -177.27)" fill="#fff0df"/></svg>